<svg xmlns="http://www.w3.org/2000/svg" xmlns:xlink="http://www.w3.org/1999/xlink" width="851" zoomAndPan="magnify" viewBox="0 0 638.25 236.249991" height="315" preserveAspectRatio="xMidYMid meet" version="1.0"><defs><g/><clipPath id="b136c2754d"><path d="M 0.636719 0 L 636.867188 0 L 636.867188 235.503906 L 0.636719 235.503906 Z M 0.636719 0 " clip-rule="nonzero"/></clipPath><clipPath id="c0df4e0e1b"><path d="M 46 85 L 116 85 L 116 155 L 46 155 Z M 46 85 " clip-rule="nonzero"/></clipPath><clipPath id="d4fbb10865"><path d="M 60.285156 82.226562 L 118.4375 140.375 L 101.519531 157.292969 L 43.367188 99.140625 Z M 60.285156 82.226562 " clip-rule="nonzero"/></clipPath><clipPath id="35b22b0717"><path d="M 60.285156 82.226562 L 118.4375 140.375 L 101.519531 157.292969 L 43.367188 99.140625 Z M 60.285156 82.226562 " clip-rule="nonzero"/></clipPath><clipPath id="d2ad636271"><path d="M 43.160156 138.824219 L 62 138.824219 L 62 157.667969 L 43.160156 157.667969 Z M 43.160156 138.824219 " clip-rule="nonzero"/></clipPath><clipPath id="e610520496"><path d="M 52.582031 138.824219 C 47.375 138.824219 43.160156 143.042969 43.160156 148.246094 C 43.160156 153.449219 47.375 157.667969 52.582031 157.667969 C 57.785156 157.667969 62 153.449219 62 148.246094 C 62 143.042969 57.785156 138.824219 52.582031 138.824219 Z M 52.582031 138.824219 " clip-rule="nonzero"/></clipPath><clipPath id="8854bb295c"><path d="M 99.757812 82.222656 L 118.601562 82.222656 L 118.601562 101.066406 L 99.757812 101.066406 Z M 99.757812 82.222656 " clip-rule="nonzero"/></clipPath><clipPath id="171e8781ed"><path d="M 109.179688 82.222656 C 103.976562 82.222656 99.757812 86.441406 99.757812 91.644531 C 99.757812 96.847656 103.976562 101.066406 109.179688 101.066406 C 114.382812 101.066406 118.601562 96.847656 118.601562 91.644531 C 118.601562 86.441406 114.382812 82.222656 109.179688 82.222656 Z M 109.179688 82.222656 " clip-rule="nonzero"/></clipPath></defs><g clip-path="url(#b136c2754d)"><path fill="#ffffff" d="M 0.636719 0 L 636.867188 0 L 636.867188 235.503906 L 0.636719 235.503906 Z M 0.636719 0 " fill-opacity="1" fill-rule="nonzero"/><path fill="#000000" d="M 0.636719 0 L 636.867188 0 L 636.867188 235.503906 L 0.636719 235.503906 Z M 0.636719 0 " fill-opacity="1" fill-rule="nonzero"/></g><g clip-path="url(#c0df4e0e1b)"><g clip-path="url(#d4fbb10865)"><g clip-path="url(#35b22b0717)"><path fill="#ff3131" d="M 65.53125 87.472656 L 113.34375 135.285156 C 113.6875 135.628906 113.992188 136 114.261719 136.40625 C 114.53125 136.808594 114.757812 137.234375 114.941406 137.683594 C 115.125 138.136719 115.261719 138.597656 115.355469 139.078125 C 115.449219 139.554688 115.496094 140.039062 115.492188 140.523438 C 115.488281 141.011719 115.4375 141.496094 115.339844 141.976562 C 115.242188 142.453125 115.101562 142.917969 114.910156 143.371094 C 114.722656 143.820312 114.492188 144.25 114.21875 144.65625 C 113.945312 145.066406 113.636719 145.441406 113.289062 145.789062 L 106.726562 152.351562 C 106.382812 152.695312 106.003906 153.007812 105.597656 153.28125 C 105.191406 153.550781 104.761719 153.785156 104.308594 153.972656 C 103.859375 154.160156 103.394531 154.304688 102.914062 154.402344 C 102.4375 154.5 101.953125 154.550781 101.464844 154.550781 C 100.976562 154.554688 100.492188 154.507812 100.015625 154.417969 C 99.539062 154.324219 99.074219 154.183594 98.625 154 C 98.175781 153.816406 97.75 153.589844 97.34375 153.320312 C 96.941406 153.050781 96.566406 152.746094 96.222656 152.402344 L 48.414062 104.59375 C 48.070312 104.25 47.765625 103.875 47.496094 103.472656 C 47.226562 103.070312 47 102.640625 46.816406 102.191406 C 46.632812 101.742188 46.492188 101.277344 46.398438 100.800781 C 46.308594 100.324219 46.261719 99.839844 46.265625 99.351562 C 46.265625 98.863281 46.316406 98.382812 46.414062 97.902344 C 46.511719 97.421875 46.65625 96.957031 46.84375 96.507812 C 47.035156 96.054688 47.265625 95.625 47.539062 95.21875 C 47.808594 94.8125 48.121094 94.4375 48.464844 94.089844 L 55.027344 87.527344 C 55.375 87.179688 55.753906 86.871094 56.160156 86.597656 C 56.566406 86.324219 56.996094 86.09375 57.445312 85.90625 C 57.898438 85.714844 58.363281 85.574219 58.84375 85.476562 C 59.320312 85.378906 59.804688 85.328125 60.292969 85.324219 C 60.78125 85.324219 61.261719 85.367188 61.738281 85.460938 C 62.21875 85.554688 62.683594 85.691406 63.132812 85.875 C 63.582031 86.0625 64.007812 86.289062 64.414062 86.554688 C 64.816406 86.824219 65.191406 87.132812 65.53125 87.472656 Z M 65.53125 87.472656 " fill-opacity="1" fill-rule="nonzero"/></g></g></g><g clip-path="url(#d2ad636271)"><g clip-path="url(#e610520496)"><path fill="#ff3131" d="M 43.160156 138.824219 L 62 138.824219 L 62 157.667969 L 43.160156 157.667969 Z M 43.160156 138.824219 " fill-opacity="1" fill-rule="nonzero"/></g></g><g fill="#ffffff" fill-opacity="1"><g transform="translate(121.300314, 150.25906)"><g><path d="M 27.984375 0.65625 C 23.660156 0.65625 19.789062 -0.109375 16.375 -1.640625 C 12.96875 -3.171875 10.296875 -5.296875 8.359375 -8.015625 C 6.421875 -10.742188 5.421875 -13.894531 5.359375 -17.46875 L 14.453125 -17.46875 C 14.765625 -14.394531 16.03125 -11.8125 18.25 -9.71875 C 20.476562 -7.625 23.722656 -6.578125 27.984375 -6.578125 C 32.046875 -6.578125 35.25 -7.59375 37.59375 -9.625 C 39.945312 -11.65625 41.125 -14.269531 41.125 -17.46875 C 41.125 -19.96875 40.4375 -22 39.0625 -23.5625 C 37.6875 -25.125 35.960938 -26.3125 33.890625 -27.125 C 31.828125 -27.945312 29.039062 -28.828125 25.53125 -29.765625 C 21.21875 -30.890625 17.757812 -32.015625 15.15625 -33.140625 C 12.5625 -34.265625 10.34375 -36.03125 8.5 -38.4375 C 6.65625 -40.851562 5.734375 -44.097656 5.734375 -48.171875 C 5.734375 -51.734375 6.640625 -54.890625 8.453125 -57.640625 C 10.265625 -60.398438 12.8125 -62.53125 16.09375 -64.03125 C 19.382812 -65.53125 23.160156 -66.28125 27.421875 -66.28125 C 33.554688 -66.28125 38.578125 -64.742188 42.484375 -61.671875 C 46.398438 -58.609375 48.609375 -54.546875 49.109375 -49.484375 L 39.71875 -49.484375 C 39.40625 -51.984375 38.085938 -54.1875 35.765625 -56.09375 C 33.453125 -58.007812 30.390625 -58.96875 26.578125 -58.96875 C 23.003906 -58.96875 20.085938 -58.039062 17.828125 -56.1875 C 15.578125 -54.34375 14.453125 -51.765625 14.453125 -48.453125 C 14.453125 -46.066406 15.125 -44.125 16.46875 -42.625 C 17.820312 -41.125 19.484375 -39.984375 21.453125 -39.203125 C 23.421875 -38.421875 26.191406 -37.53125 29.765625 -36.53125 C 34.078125 -35.332031 37.546875 -34.15625 40.171875 -33 C 42.804688 -31.84375 45.0625 -30.054688 46.9375 -27.640625 C 48.820312 -25.234375 49.765625 -21.96875 49.765625 -17.84375 C 49.765625 -14.644531 48.914062 -11.632812 47.21875 -8.8125 C 45.53125 -6 43.023438 -3.71875 39.703125 -1.96875 C 36.390625 -0.21875 32.484375 0.65625 27.984375 0.65625 Z M 27.984375 0.65625 "/></g></g></g><g fill="#ffffff" fill-opacity="1"><g transform="translate(173.124632, 150.25906)"><g><path d="M 32.296875 -52.390625 C 38.554688 -52.390625 43.625 -50.492188 47.5 -46.703125 C 51.382812 -42.921875 53.328125 -37.460938 53.328125 -30.328125 L 53.328125 0 L 44.875 0 L 44.875 -29.109375 C 44.875 -34.242188 43.59375 -38.171875 41.03125 -40.890625 C 38.46875 -43.609375 34.960938 -44.96875 30.515625 -44.96875 C 26.003906 -44.96875 22.421875 -43.5625 19.765625 -40.75 C 17.109375 -37.9375 15.78125 -33.835938 15.78125 -28.453125 L 15.78125 0 L 7.234375 0 L 7.234375 -51.453125 L 15.78125 -51.453125 L 15.78125 -44.125 C 17.46875 -46.757812 19.765625 -48.796875 22.671875 -50.234375 C 25.585938 -51.671875 28.796875 -52.390625 32.296875 -52.390625 Z M 32.296875 -52.390625 "/></g></g></g><g fill="#ffffff" fill-opacity="1"><g transform="translate(229.924883, 150.25906)"><g><path d="M 4.03125 -25.90625 C 4.03125 -31.164062 5.09375 -35.78125 7.21875 -39.75 C 9.351562 -43.726562 12.28125 -46.8125 16 -49 C 19.726562 -51.195312 23.878906 -52.296875 28.453125 -52.296875 C 32.953125 -52.296875 36.859375 -51.320312 40.171875 -49.375 C 43.492188 -47.4375 45.972656 -45 47.609375 -42.0625 L 47.609375 -51.453125 L 56.234375 -51.453125 L 56.234375 0 L 47.609375 0 L 47.609375 -9.578125 C 45.910156 -6.566406 43.382812 -4.078125 40.03125 -2.109375 C 36.6875 -0.140625 32.796875 0.84375 28.359375 0.84375 C 23.785156 0.84375 19.648438 -0.28125 15.953125 -2.53125 C 12.265625 -4.789062 9.351562 -7.953125 7.21875 -12.015625 C 5.09375 -16.085938 4.03125 -20.71875 4.03125 -25.90625 Z M 47.609375 -25.8125 C 47.609375 -29.695312 46.820312 -33.078125 45.25 -35.953125 C 43.6875 -38.835938 41.570312 -41.046875 38.90625 -42.578125 C 36.25 -44.109375 33.328125 -44.875 30.140625 -44.875 C 26.941406 -44.875 24.03125 -44.125 21.40625 -42.625 C 18.78125 -41.125 16.679688 -38.929688 15.109375 -36.046875 C 13.546875 -33.171875 12.765625 -29.789062 12.765625 -25.90625 C 12.765625 -21.96875 13.546875 -18.539062 15.109375 -15.625 C 16.679688 -12.71875 18.78125 -10.5 21.40625 -8.96875 C 24.03125 -7.4375 26.941406 -6.671875 30.140625 -6.671875 C 33.328125 -6.671875 36.25 -7.4375 38.90625 -8.96875 C 41.570312 -10.5 43.6875 -12.71875 45.25 -15.625 C 46.820312 -18.539062 47.609375 -21.9375 47.609375 -25.8125 Z M 47.609375 -25.8125 "/></g></g></g><g fill="#ffffff" fill-opacity="1"><g transform="translate(290.105019, 150.25906)"><g><path d="M 15.78125 -41.96875 C 17.46875 -44.90625 19.984375 -47.359375 23.328125 -49.328125 C 26.679688 -51.304688 30.578125 -52.296875 35.015625 -52.296875 C 39.585938 -52.296875 43.734375 -51.195312 47.453125 -49 C 51.179688 -46.8125 54.109375 -43.726562 56.234375 -39.75 C 58.367188 -35.78125 59.4375 -31.164062 59.4375 -25.90625 C 59.4375 -20.71875 58.367188 -16.085938 56.234375 -12.015625 C 54.109375 -7.953125 51.179688 -4.789062 47.453125 -2.53125 C 43.734375 -0.28125 39.585938 0.84375 35.015625 0.84375 C 30.640625 0.84375 26.773438 -0.140625 23.421875 -2.109375 C 20.078125 -4.078125 17.53125 -6.535156 15.78125 -9.484375 L 15.78125 24.40625 L 7.234375 24.40625 L 7.234375 -51.453125 L 15.78125 -51.453125 Z M 50.703125 -25.90625 C 50.703125 -29.789062 49.914062 -33.171875 48.34375 -36.046875 C 46.78125 -38.929688 44.671875 -41.125 42.015625 -42.625 C 39.359375 -44.125 36.429688 -44.875 33.234375 -44.875 C 30.109375 -44.875 27.210938 -44.109375 24.546875 -42.578125 C 21.890625 -41.046875 19.765625 -38.820312 18.171875 -35.90625 C 16.578125 -33 15.78125 -29.632812 15.78125 -25.8125 C 15.78125 -21.9375 16.578125 -18.539062 18.171875 -15.625 C 19.765625 -12.71875 21.890625 -10.5 24.546875 -8.96875 C 27.210938 -7.4375 30.109375 -6.671875 33.234375 -6.671875 C 36.429688 -6.671875 39.359375 -7.4375 42.015625 -8.96875 C 44.671875 -10.5 46.78125 -12.71875 48.34375 -15.625 C 49.914062 -18.539062 50.703125 -21.96875 50.703125 -25.90625 Z M 50.703125 -25.90625 "/></g></g></g><g fill="#00bf65" fill-opacity="1"><g transform="translate(350.295981, 150.25906)"><g><path d="M 73.609375 -64.96875 L 73.609375 0 L 65.0625 0 L 65.0625 -48.453125 L 43.46875 0 L 37.46875 0 L 15.78125 -48.546875 L 15.78125 0 L 7.234375 0 L 7.234375 -64.96875 L 16.4375 -64.96875 L 40.46875 -11.265625 L 64.5 -64.96875 Z M 73.609375 -64.96875 "/></g></g></g><g fill="#00bf65" fill-opacity="1"><g transform="translate(427.844944, 150.25906)"><g><path d="M 54.171875 -27.703125 C 54.171875 -26.066406 54.078125 -24.34375 53.890625 -22.53125 L 12.765625 -22.53125 C 13.078125 -17.457031 14.8125 -13.5 17.96875 -10.65625 C 21.132812 -7.8125 24.972656 -6.390625 29.484375 -6.390625 C 33.171875 -6.390625 36.25 -7.25 38.71875 -8.96875 C 41.195312 -10.6875 42.9375 -12.988281 43.9375 -15.875 L 53.140625 -15.875 C 51.765625 -10.925781 49.007812 -6.898438 44.875 -3.796875 C 40.75 -0.703125 35.617188 0.84375 29.484375 0.84375 C 24.597656 0.84375 20.226562 -0.25 16.375 -2.4375 C 12.53125 -4.632812 9.507812 -7.75 7.3125 -11.78125 C 5.125 -15.820312 4.03125 -20.5 4.03125 -25.8125 C 4.03125 -31.132812 5.09375 -35.796875 7.21875 -39.796875 C 9.351562 -43.804688 12.34375 -46.890625 16.1875 -49.046875 C 20.039062 -51.210938 24.472656 -52.296875 29.484375 -52.296875 C 34.367188 -52.296875 38.6875 -51.226562 42.4375 -49.09375 C 46.195312 -46.96875 49.09375 -44.039062 51.125 -40.3125 C 53.15625 -36.59375 54.171875 -32.390625 54.171875 -27.703125 Z M 45.34375 -29.484375 C 45.34375 -32.734375 44.625 -35.53125 43.1875 -37.875 C 41.75 -40.226562 39.789062 -42.015625 37.3125 -43.234375 C 34.84375 -44.453125 32.109375 -45.0625 29.109375 -45.0625 C 24.785156 -45.0625 21.101562 -43.6875 18.0625 -40.9375 C 15.03125 -38.1875 13.296875 -34.367188 12.859375 -29.484375 Z M 45.34375 -29.484375 "/></g></g></g><g fill="#00bf65" fill-opacity="1"><g transform="translate(482.767482, 150.25906)"><g><path d="M 32.296875 -52.390625 C 38.554688 -52.390625 43.625 -50.492188 47.5 -46.703125 C 51.382812 -42.921875 53.328125 -37.460938 53.328125 -30.328125 L 53.328125 0 L 44.875 0 L 44.875 -29.109375 C 44.875 -34.242188 43.59375 -38.171875 41.03125 -40.890625 C 38.46875 -43.609375 34.960938 -44.96875 30.515625 -44.96875 C 26.003906 -44.96875 22.421875 -43.5625 19.765625 -40.75 C 17.109375 -37.9375 15.78125 -33.835938 15.78125 -28.453125 L 15.78125 0 L 7.234375 0 L 7.234375 -51.453125 L 15.78125 -51.453125 L 15.78125 -44.125 C 17.46875 -46.757812 19.765625 -48.796875 22.671875 -50.234375 C 25.585938 -51.671875 28.796875 -52.390625 32.296875 -52.390625 Z M 32.296875 -52.390625 "/></g></g></g><g fill="#00bf65" fill-opacity="1"><g transform="translate(539.567738, 150.25906)"><g><path d="M 52.859375 -51.453125 L 52.859375 0 L 44.3125 0 L 44.3125 -7.609375 C 42.6875 -4.972656 40.414062 -2.921875 37.5 -1.453125 C 34.59375 0.015625 31.390625 0.75 27.890625 0.75 C 23.878906 0.75 20.273438 -0.078125 17.078125 -1.734375 C 13.890625 -3.390625 11.375 -5.875 9.53125 -9.1875 C 7.6875 -12.507812 6.765625 -16.550781 6.765625 -21.3125 L 6.765625 -51.453125 L 15.203125 -51.453125 L 15.203125 -22.4375 C 15.203125 -17.363281 16.484375 -13.46875 19.046875 -10.75 C 21.617188 -8.03125 25.128906 -6.671875 29.578125 -6.671875 C 34.140625 -6.671875 37.734375 -8.078125 40.359375 -10.890625 C 42.992188 -13.703125 44.3125 -17.800781 44.3125 -23.1875 L 44.3125 -51.453125 Z M 52.859375 -51.453125 "/></g></g></g><g clip-path="url(#8854bb295c)"><g clip-path="url(#171e8781ed)"><path fill="#ff3131" d="M 99.757812 82.222656 L 118.601562 82.222656 L 118.601562 101.066406 L 99.757812 101.066406 Z M 99.757812 82.222656 " fill-opacity="1" fill-rule="nonzero"/></g></g></svg>